<svg width="21" height="21" viewBox="0 0 21 21" fill="none" xmlns="http://www.w3.org/2000/svg">
<path d="M14.4943 3.97355C15.6082 4.03513 16.6526 4.53447 17.3999 5.36275C18.1472 6.19102 18.5369 7.2811 18.484 8.39543C18.484 10.9987 16.2366 12.5978 14.0799 14.5156C11.9512 16.4163 10.8046 17.4553 10.4334 17.6951C10.0292 17.4333 8.6174 16.1502 6.78696 14.5156C4.62093 12.5902 2.38288 10.9759 2.38288 8.39543C2.32997 7.2811 2.71963 6.19102 3.46696 5.36275C4.21428 4.53447 5.25868 4.03513 6.37257 3.97355C6.98962 3.95485 7.60096 4.09659 8.14684 4.3849C8.69271 4.67321 9.15443 5.09823 9.48687 5.61841C10.1987 6.61414 10.3173 7.11243 10.436 7.11243C10.5546 7.11243 10.6716 6.61414 11.3766 5.61587C11.7072 5.09328 12.1691 4.66657 12.7162 4.37838C13.2633 4.09019 13.8764 3.9506 14.4943 3.97355ZM14.4943 2.2787C13.7248 2.25406 12.9596 2.40334 12.2558 2.71542C11.552 3.0275 10.9276 3.49434 10.4292 4.08118C9.93123 3.49605 9.30815 3.03029 8.606 2.7183C7.90385 2.40632 7.14058 2.25608 6.37257 2.2787C4.80895 2.33984 3.33317 3.01764 2.26791 4.16388C1.20266 5.31012 0.634628 6.83153 0.688021 8.39543C0.688021 11.4546 2.84896 13.3334 4.93787 15.1494C5.17769 15.3579 5.42006 15.5681 5.66073 15.7825L6.53104 16.5604C7.48019 17.4636 8.47526 18.3172 9.51229 19.1179C9.78667 19.2956 10.1066 19.3901 10.4334 19.3901C10.7603 19.3901 11.0802 19.2956 11.3546 19.1179C12.4246 18.2928 13.4503 17.4116 14.4274 16.4782L15.2087 15.7799C15.457 15.5596 15.7087 15.3401 15.9587 15.124C17.9366 13.408 20.1789 11.4631 20.1789 8.39543C20.2323 6.83153 19.6642 5.31012 18.599 4.16388C17.5337 3.01764 16.0579 2.33984 14.4943 2.2787Z" fill="#262626"/>
</svg>
